<svg width="117" height="17" viewBox="0 0 117 17" fill="none" xmlns="http://www.w3.org/2000/svg">
<g filter="url(#filter0_d_40_4)">
<path d="M17.264 0.896C18.288 0.896 19.192 1.104 19.976 1.52C20.776 1.92 21.4 2.544 21.848 3.392C22.312 4.224 22.544 5.296 22.544 6.608V14H18.8V7.184C18.8 6.144 18.584 5.376 18.152 4.88C17.72 4.384 17.112 4.136 16.328 4.136C15.784 4.136 15.296 4.264 14.864 4.52C14.432 4.76 14.096 5.128 13.856 5.624C13.616 6.12 13.496 6.752 13.496 7.52V14H9.752V7.184C9.752 6.144 9.536 5.376 9.104 4.88C8.688 4.384 8.088 4.136 7.304 4.136C6.76 4.136 6.272 4.264 5.84 4.52C5.408 4.76 5.072 5.128 4.832 5.624C4.592 6.12 4.472 6.752 4.472 7.52V14H0.728V1.088H4.304V4.616L3.632 3.584C4.08 2.704 4.712 2.04 5.528 1.592C6.36 1.128 7.304 0.896 8.36 0.896C9.544 0.896 10.576 1.2 11.456 1.808C12.352 2.4 12.944 3.312 13.232 4.544L11.912 4.184C12.344 3.176 13.032 2.376 13.976 1.784C14.936 1.192 16.032 0.896 17.264 0.896ZM32.1376 14.192C30.7616 14.192 29.5376 13.904 28.4656 13.328C27.4096 12.752 26.5696 11.968 25.9456 10.976C25.3376 9.968 25.0336 8.824 25.0336 7.544C25.0336 6.248 25.3376 5.104 25.9456 4.112C26.5696 3.104 27.4096 2.32 28.4656 1.76C29.5376 1.184 30.7616 0.896 32.1376 0.896C33.4976 0.896 34.7136 1.184 35.7856 1.76C36.8576 2.32 37.6976 3.096 38.3056 4.088C38.9136 5.08 39.2176 6.232 39.2176 7.544C39.2176 8.824 38.9136 9.968 38.3056 10.976C37.6976 11.968 36.8576 12.752 35.7856 13.328C34.7136 13.904 33.4976 14.192 32.1376 14.192ZM32.1376 11.12C32.7616 11.12 33.3216 10.976 33.8176 10.688C34.3136 10.4 34.7056 9.992 34.9936 9.464C35.2816 8.92 35.4256 8.28 35.4256 7.544C35.4256 6.792 35.2816 6.152 34.9936 5.624C34.7056 5.096 34.3136 4.688 33.8176 4.4C33.3216 4.112 32.7616 3.968 32.1376 3.968C31.5136 3.968 30.9536 4.112 30.4576 4.4C29.9616 4.688 29.5616 5.096 29.2576 5.624C28.9696 6.152 28.8256 6.792 28.8256 7.544C28.8256 8.28 28.9696 8.92 29.2576 9.464C29.5616 9.992 29.9616 10.4 30.4576 10.688C30.9536 10.976 31.5136 11.12 32.1376 11.12ZM44.8726 14L39.4486 1.088H43.3126L47.8246 12.2H45.9046L50.5846 1.088H54.1846L48.7366 14H44.8726ZM114.621 14.192C113.981 14.192 113.429 13.976 112.965 13.544C112.517 13.096 112.293 12.528 112.293 11.84C112.293 11.152 112.517 10.6 112.965 10.184C113.429 9.752 113.981 9.536 114.621 9.536C115.277 9.536 115.829 9.752 116.277 10.184C116.725 10.6 116.949 11.152 116.949 11.84C116.949 12.528 116.725 13.096 116.277 13.544C115.829 13.976 115.277 14.192 114.621 14.192Z" fill="#E8E8E8"/>
<path d="M62.1204 14.192C60.6484 14.192 59.3524 13.904 58.2324 13.328C57.1284 12.752 56.2724 11.968 55.6644 10.976C55.0564 9.968 54.7524 8.824 54.7524 7.544C54.7524 6.248 55.0484 5.104 55.6404 4.112C56.2484 3.104 57.0724 2.32 58.1124 1.76C59.1524 1.184 60.3284 0.896 61.6404 0.896C62.9044 0.896 64.0404 1.168 65.0484 1.712C66.0724 2.24 66.8804 3.008 67.4724 4.016C68.0644 5.008 68.3604 6.2 68.3604 7.592C68.3604 7.736 68.3524 7.904 68.3364 8.096C68.3204 8.272 68.3044 8.44 68.2884 8.6H57.8004V6.416H66.3204L64.8804 7.064C64.8804 6.392 64.7444 5.808 64.4724 5.312C64.2004 4.816 63.8244 4.432 63.3444 4.16C62.8644 3.872 62.3044 3.728 61.6644 3.728C61.0244 3.728 60.4564 3.872 59.9604 4.16C59.4804 4.432 59.1044 4.824 58.8324 5.336C58.5604 5.832 58.4244 6.424 58.4244 7.112V7.688C58.4244 8.392 58.5764 9.016 58.8804 9.56C59.2004 10.088 59.6404 10.496 60.2004 10.784C60.7764 11.056 61.4484 11.192 62.2164 11.192C62.9044 11.192 63.5044 11.088 64.0164 10.88C64.5444 10.672 65.0244 10.36 65.4564 9.944L67.4484 12.104C66.8564 12.776 66.1124 13.296 65.2164 13.664C64.3204 14.016 63.2884 14.192 62.1204 14.192ZM78.4214 14V11.48L78.1814 10.928V6.416C78.1814 5.616 77.9334 4.992 77.4374 4.544C76.9574 4.096 76.2134 3.872 75.2054 3.872C74.5174 3.872 73.8374 3.984 73.1654 4.208C72.5094 4.416 71.9494 4.704 71.4854 5.072L70.1414 2.456C70.8454 1.96 71.6934 1.576 72.6854 1.304C73.6774 1.032 74.6854 0.896 75.7094 0.896C77.6774 0.896 79.2054 1.36 80.2934 2.288C81.3814 3.216 81.9254 4.664 81.9254 6.632V14H78.4214ZM74.4854 14.192C73.4774 14.192 72.6134 14.024 71.8934 13.688C71.1734 13.336 70.6214 12.864 70.2374 12.272C69.8534 11.68 69.6614 11.016 69.6614 10.28C69.6614 9.512 69.8454 8.84 70.2134 8.264C70.5974 7.688 71.1974 7.24 72.0134 6.92C72.8294 6.584 73.8934 6.416 75.2054 6.416H78.6374V8.6H75.6134C74.7334 8.6 74.1254 8.744 73.7894 9.032C73.4694 9.32 73.3094 9.68 73.3094 10.112C73.3094 10.592 73.4934 10.976 73.8614 11.264C74.2454 11.536 74.7654 11.672 75.4214 11.672C76.0454 11.672 76.6054 11.528 77.1014 11.24C77.5974 10.936 77.9574 10.496 78.1814 9.92L78.7574 11.648C78.4854 12.48 77.9894 13.112 77.2694 13.544C76.5494 13.976 75.6214 14.192 74.4854 14.192ZM89.6579 14.192C88.5539 14.192 87.4899 14.064 86.4659 13.808C85.4579 13.536 84.6579 13.2 84.0659 12.8L85.3139 10.112C85.9059 10.48 86.6019 10.784 87.4019 11.024C88.2179 11.248 89.0179 11.36 89.8019 11.36C90.6659 11.36 91.2739 11.256 91.6259 11.048C91.9939 10.84 92.1779 10.552 92.1779 10.184C92.1779 9.88 92.0339 9.656 91.7459 9.512C91.4739 9.352 91.1059 9.232 90.6419 9.152C90.1779 9.072 89.6659 8.992 89.1059 8.912C88.5619 8.832 88.0099 8.728 87.4499 8.6C86.8899 8.456 86.3779 8.248 85.9139 7.976C85.4499 7.704 85.0739 7.336 84.7859 6.872C84.5139 6.408 84.3779 5.808 84.3779 5.072C84.3779 4.256 84.6099 3.536 85.0739 2.912C85.5539 2.288 86.2419 1.8 87.1379 1.448C88.0339 1.08 89.1059 0.896 90.3539 0.896C91.2339 0.896 92.1299 0.992 93.0419 1.184C93.9539 1.376 94.7139 1.656 95.3219 2.024L94.0739 4.688C93.4499 4.32 92.8179 4.072 92.1779 3.944C91.5539 3.8 90.9459 3.728 90.3539 3.728C89.5219 3.728 88.9139 3.84 88.5299 4.064C88.1459 4.288 87.9539 4.576 87.9539 4.928C87.9539 5.248 88.0899 5.488 88.3619 5.648C88.6499 5.808 89.0259 5.936 89.4899 6.032C89.9539 6.128 90.4579 6.216 91.0019 6.296C91.5619 6.36 92.1219 6.464 92.6819 6.608C93.2419 6.752 93.7459 6.96 94.1939 7.232C94.6579 7.488 95.0339 7.848 95.3219 8.312C95.6099 8.76 95.7539 9.352 95.7539 10.088C95.7539 10.888 95.5139 11.6 95.0339 12.224C94.5539 12.832 93.8579 13.312 92.9459 13.664C92.0499 14.016 90.9539 14.192 89.6579 14.192ZM104.472 14.192C103 14.192 101.704 13.904 100.584 13.328C99.4799 12.752 98.6239 11.968 98.0159 10.976C97.4079 9.968 97.1039 8.824 97.1039 7.544C97.1039 6.248 97.3999 5.104 97.9919 4.112C98.5999 3.104 99.4239 2.32 100.464 1.76C101.504 1.184 102.68 0.896 103.992 0.896C105.256 0.896 106.392 1.168 107.4 1.712C108.424 2.24 109.232 3.008 109.824 4.016C110.416 5.008 110.712 6.2 110.712 7.592C110.712 7.736 110.704 7.904 110.688 8.096C110.672 8.272 110.656 8.44 110.64 8.6H100.152V6.416H108.672L107.232 7.064C107.232 6.392 107.096 5.808 106.824 5.312C106.552 4.816 106.176 4.432 105.696 4.16C105.216 3.872 104.656 3.728 104.016 3.728C103.376 3.728 102.808 3.872 102.312 4.16C101.832 4.432 101.456 4.824 101.184 5.336C100.912 5.832 100.776 6.424 100.776 7.112V7.688C100.776 8.392 100.928 9.016 101.232 9.56C101.552 10.088 101.992 10.496 102.552 10.784C103.128 11.056 103.8 11.192 104.568 11.192C105.256 11.192 105.856 11.088 106.368 10.88C106.896 10.672 107.376 10.36 107.808 9.944L109.8 12.104C109.208 12.776 108.464 13.296 107.568 13.664C106.672 14.016 105.64 14.192 104.472 14.192Z" fill="#BE0503"/>
</g>
<defs>
<filter id="filter0_d_40_4" x="0.728027" y="0.895996" width="116.22" height="15.296" filterUnits="userSpaceOnUse" color-interpolation-filters="sRGB">
<feFlood flood-opacity="0" result="BackgroundImageFix"/>
<feColorMatrix in="SourceAlpha" type="matrix" values="0 0 0 0 0 0 0 0 0 0 0 0 0 0 0 0 0 0 127 0" result="hardAlpha"/>
<feOffset dy="2"/>
<feComposite in2="hardAlpha" operator="out"/>
<feColorMatrix type="matrix" values="0 0 0 0 0 0 0 0 0 0 0 0 0 0 0 0 0 0 0.7 0"/>
<feBlend mode="normal" in2="BackgroundImageFix" result="effect1_dropShadow_40_4"/>
<feBlend mode="normal" in="SourceGraphic" in2="effect1_dropShadow_40_4" result="shape"/>
</filter>
</defs>
</svg>
